<?xml version="1.0" encoding="UTF-8" standalone="no"?>
<!-- Created with Inkscape (http://www.inkscape.org/) -->

<svg
        version="1.0"
        width="100%"
        viewBox="0 0 562 495"
        id="svg2"
        sodipodi:docname="Republicanlogo.svg"
        inkscape:version="1.3 (0e150ed6c4, 2023-07-21)"
        xmlns:inkscape="http://www.inkscape.org/namespaces/inkscape"
        xmlns:sodipodi="http://sodipodi.sourceforge.net/DTD/sodipodi-0.dtd"
        xmlns="http://www.w3.org/2000/svg"
        xmlns:svg="http://www.w3.org/2000/svg">
    <sodipodi:namedview
            id="namedview1"
            pagecolor="#ffffff"
            bordercolor="#666666"
            borderopacity="1.0"
            inkscape:showpageshadow="2"
            inkscape:pageopacity="0.0"
            inkscape:pagecheckerboard="0"
            inkscape:deskcolor="#d1d1d1"
            inkscape:zoom="1.5834933"
            inkscape:cx="274.70909"
            inkscape:cy="249.76424"
            inkscape:window-width="1920"
            inkscape:window-height="1007"
            inkscape:window-x="-9"
            inkscape:window-y="-9"
            inkscape:window-maximized="1"
            inkscape:current-layer="svg2" />
    <defs
            id="defs4" />
    <g
            id="layer1"
            transform="translate(-25.556903,-10.84501)">
        <path
                d="m 25.556904,181.24351 c 0.0025,36.46432 1.250696,39.40115 22.55021,39.33759 21.069035,-0.0652 436.918056,-0.50485 437.223506,-0.50111 16.27562,0.20226 20.62292,-3.75397 20.54574,-31.5703 C 505.47315,42.934967 413.17215,9.9284822 264.08801,10.864154 136.30486,11.666139 25.547142,40.413678 25.556904,181.24351 Z"
                style="fill:#1404bd;fill-opacity:1;fill-rule:evenodd;stroke:none"
                id="back" />
        <path
                d="M 127.78452,186.25467 113.33675,142.79114 67.734261,142.6256 104.60592,115.45397 90.671418,72.032279 127.90714,98.702821 164.89763,72.032277 151.0389,115.6872 l 36.79589,26.93839 -45.80088,0.30969 z"
                transform="translate(-0.501116,-1.75391)"
                style="fill:#ffffff;fill-opacity:1;fill-rule:evenodd;stroke:none"
                id="star1" />
        <path
                d="M 127.78452,186.25467 113.33675,142.79114 67.734261,142.6256 104.60592,115.45397 90.671418,72.032279 127.90714,98.702821 164.89763,72.032277 151.0389,115.6872 l 36.79589,26.93839 -45.80088,0.30969 z"
                transform="translate(139.31,-2.27102)"
                style="fill:#ffffff;fill-opacity:1;fill-rule:evenodd;stroke:none"
                id="star2" />
        <path
                d="M 127.78452,186.25467 113.33675,142.79114 67.734261,142.6256 104.60592,115.45397 90.671418,72.032279 127.90714,98.702821 164.89763,72.032277 151.0389,115.6872 l 36.79589,26.93839 -45.80088,0.30969 z"
                transform="translate(278.871,-1.76991)"
                style="fill:#ffffff;fill-opacity:1;fill-rule:evenodd;stroke:none"
                id="star3" />
        <path
                d="m 44.599303,235.11346 c -13.17481,-0.0755 -17.789609,3.50781 -17.78961,14.78291 -1e-6,23.32342 -1.764872,203.46087 -0.751673,232.76828 0.398381,11.5234 6.7658,14.92139 15.284031,15.03347 19.044047,0.25058 66.400019,0.87424 83.936889,0.50111 12.02678,-0.25056 17.20446,-5.99995 17.78961,-23.30188 0.54859,-16.221 -0.25746,-43.10002 0.25056,-67.14951 0.1713,-8.10946 3.0067,-14.03124 11.27511,-14.2818 20.95654,-0.63506 101.50824,-0.6457 117.51164,-0.25056 20.29519,0.50112 23.55244,0.25056 24.05356,21.29742 0.5955,25.01109 0.50111,40.33982 -0.25056,59.63277 -0.80308,20.61245 6.01339,22.55021 17.03793,22.80077 16.28206,0.37005 53.87034,-0.52848 72.66179,-0.25055 24.98469,0.35841 24.51908,-7.25505 24.80523,-39.83871 0.1292,-14.03289 0.0207,-62.91302 -0.50112,-85.18968 -0.12961,-5.53348 2.75666,-9.45871 6.51451,-9.5212 15.31919,-0.25057 18.50864,39.84486 22.29965,59.88334 14.05386,74.28579 46.54037,83.76076 76.1696,83.93689 37.14167,0.23269 72.5323,-30.56027 72.66179,-93.95921 0.0195,-9.54585 -2.00447,-17.7896 -9.02009,-17.78961 -31.32791,-3e-5 -13.03349,0.45923 -29.56583,0 -8.76953,-0.25056 -16.53682,1.00223 -14.78291,14.53236 1.7539,13.53012 2.52489,38.7494 -14.53237,39.33758 -7.26617,0.25056 -13.029,-5.01115 -13.029,-19.79407 0,-14.78291 -1.04112,-165.37709 -1.50335,-177.39498 -0.25056,-6.51451 -0.50112,-16.28626 -13.53013,-16.0357 -16.283,0.32566 -420.580648,0.39375 -446.995257,0.25056 z"
                style="fill:#de0100;fill-opacity:1;fill-rule:evenodd;stroke:none"
                id="trunk" />
    </g>
</svg>